<svg id="Layer_1" data-name="Layer 1" xmlns="http://www.w3.org/2000/svg" viewBox="0 0 500 500"><defs><style>.cls-1{opacity:0.05;}.cls-2{fill:#efefef;}.cls-3{fill:none;}</style></defs><g class="cls-1"><rect class="cls-2" width="500" height="500"/><circle class="cls-3" cx="399.5" cy="300.5" r="2.5"/><circle class="cls-3" cx="399.5" cy="100.5" r="2.5"/><circle class="cls-3" cx="349.5" cy="150.5" r="2.5"/><circle class="cls-3" cx="299.5" cy="200.5" r="2.5"/><circle class="cls-3" cx="349.5" cy="250.5" r="2.5"/><circle class="cls-3" cx="349.5" cy="450.5" r="2.5"/><circle class="cls-3" cx="449.5" cy="50.5" r="2.5"/><circle class="cls-3" cx="349.5" cy="350.5" r="2.5"/><circle class="cls-3" cx="249.5" cy="150.5" r="2.5"/><circle class="cls-3" cx="299.5" cy="300.5" r="2.5"/><circle class="cls-3" cx="249.5" cy="250.5" r="2.5"/><circle class="cls-3" cx="349.5" cy="50.5" r="2.5"/><circle class="cls-3" cx="399.5" cy="400.5" r="2.5"/><circle class="cls-3" cx="249.5" cy="450.5" r="2.5"/><circle class="cls-3" cx="249.5" cy="350.5" r="2.5"/><circle class="cls-3" cx="399.5" cy="200.5" r="2.5"/><path class="cls-3" d="M197,.5a2.5,2.5,0,0,0,5,0A2.73,2.73,0,0,0,202,0h-4.9A2.73,2.73,0,0,0,197,.5Z"/><path class="cls-3" d="M297,.5a2.5,2.5,0,0,0,5,0A2.73,2.73,0,0,0,302,0h-4.9A2.73,2.73,0,0,0,297,.5Z"/><path class="cls-3" d="M97,.5a2.5,2.5,0,0,0,5,0,2.73,2.73,0,0,0,0-.5h-4.9A2.73,2.73,0,0,0,97,.5Z"/><path class="cls-3" d="M397,.5a2.5,2.5,0,0,0,5,0A2.73,2.73,0,0,0,402,0h-4.9A2.73,2.73,0,0,0,397,.5Z"/><path class="cls-3" d="M499.5,98a2.5,2.5,0,0,0,0,5,2.73,2.73,0,0,0,.5,0v-4.9A2.73,2.73,0,0,0,499.5,98Z"/><path class="cls-3" d="M497.05,0a2.73,2.73,0,0,0-.05.5A2.5,2.5,0,0,0,499.5,3a2.73,2.73,0,0,0,.5,0V0Z"/><path class="cls-3" d="M0,3A2.5,2.5,0,0,0,2,.5,2.73,2.73,0,0,0,2,0H0Z"/><path class="cls-3" d="M2,300.5a2.5,2.5,0,0,0-2-2.45V303A2.5,2.5,0,0,0,2,300.5Z"/><circle class="cls-3" cx="449.5" cy="450.5" r="2.5"/><path class="cls-3" d="M2,100.5a2.5,2.5,0,0,0-2-2.45V103A2.5,2.5,0,0,0,2,100.5Z"/><circle class="cls-3" cx="449.5" cy="250.5" r="2.5"/><circle class="cls-3" cx="449.5" cy="350.5" r="2.5"/><path class="cls-3" d="M2,400.5a2.5,2.5,0,0,0-2-2.45V403A2.5,2.5,0,0,0,2,400.5Z"/><path class="cls-3" d="M2,200.5a2.5,2.5,0,0,0-2-2.45V203A2.5,2.5,0,0,0,2,200.5Z"/><circle class="cls-3" cx="449.5" cy="150.5" r="2.5"/><circle class="cls-3" cx="49.5" cy="350.5" r="2.5"/><path class="cls-3" d="M5,500H46.88l-3.27-3.27,2.12-2.12L49.08,498l3.36-3.35,2.12,2.12L51.29,500H94A5.49,5.49,0,0,1,105,500h41.91l-3.27-3.27,2.12-2.12,3.35,3.35,3.36-3.35,2.12,2.12L151.29,500H194A5.49,5.49,0,0,1,205,500h41.91l-3.27-3.27,2.12-2.12,3.35,3.35,3.36-3.35,2.12,2.12L251.29,500H294A5.49,5.49,0,0,1,305,500h41.91l-3.27-3.27,2.12-2.12,3.35,3.35,3.36-3.35,2.12,2.12L351.29,500H394A5.49,5.49,0,0,1,405,500h41.91l-3.27-3.27,2.12-2.12,3.35,3.35,3.36-3.35,2.12,2.12L451.29,500H494a5.49,5.49,0,0,1,5.47-5,4.19,4.19,0,0,1,.5,0V452.29l-3.27,3.27-2.12-2.12,3.35-3.36-3.35-3.35,2.12-2.12,3.27,3.27V406a4.19,4.19,0,0,1-.5,0,5.5,5.5,0,0,1,0-11,4.19,4.19,0,0,1,.5,0V352.29l-3.27,3.27-2.12-2.12,3.35-3.36-3.35-3.35,2.12-2.12,3.27,3.27V306a4.19,4.19,0,0,1-.5,0,5.5,5.5,0,0,1,0-11,4.19,4.19,0,0,1,.5,0V252.29l-3.27,3.27-2.12-2.12,3.35-3.36-3.35-3.35,2.12-2.12,3.27,3.27V206a4.19,4.19,0,0,1-.5,0,5.5,5.5,0,0,1,0-11,4.19,4.19,0,0,1,.5,0V152.29l-3.27,3.27-2.12-2.12,3.35-3.36-3.35-3.35,2.12-2.12,3.27,3.27V106a4.19,4.19,0,0,1-.5,0,5.5,5.5,0,0,1,0-11,4.19,4.19,0,0,1,.5,0V52.29l-3.27,3.27-2.12-2.12L498,50.08l-3.35-3.35,2.12-2.12L500,47.88V6a4.19,4.19,0,0,1-.5,0A5.5,5.5,0,0,1,494,.5a4.07,4.07,0,0,1,0-.5H451.29l-.09.08,3.36,3.36-2.12,2.12L449.08,2.2l-3.35,3.36-2.12-2.12L447,.08,446.88,0H405a4.07,4.07,0,0,1,0,.5,5.5,5.5,0,0,1-11,0,4.07,4.07,0,0,1,0-.5H351.29l-.09.08,3.36,3.36-2.12,2.12L349.08,2.2l-3.35,3.36-2.12-2.12L347,.08,346.88,0H305a4.07,4.07,0,0,1,0,.5,5.5,5.5,0,0,1-11,0,4.07,4.07,0,0,1,0-.5H251.29l-.09.08,3.36,3.36-2.12,2.12L249.08,2.2l-3.35,3.36-2.12-2.12L247,.08,246.88,0H205a4.07,4.07,0,0,1,0,.5,5.5,5.5,0,0,1-11,0,4.07,4.07,0,0,1,0-.5H151.29l-.09.08,3.36,3.36-2.12,2.12L149.08,2.2l-3.35,3.36-2.12-2.12L147,.08,146.88,0H105a4.07,4.07,0,0,1,0,.5,5.5,5.5,0,0,1-11,0A4.07,4.07,0,0,1,94,0H51.29L51.2.08l3.36,3.36L52.44,5.56,49.08,2.2,45.73,5.56,43.61,3.44,47,.08,46.88,0H5A4.07,4.07,0,0,1,5,.5,5.49,5.49,0,0,1,0,6V47.88L.08,48l3.36-3.35,2.12,2.12L2.2,50.08l3.36,3.36L3.44,55.56.08,52.2,0,52.29V95a5.49,5.49,0,0,1,5,5.47A5.49,5.49,0,0,1,0,106v41.91l.08.08,3.36-3.35,2.12,2.12L2.2,150.08l3.36,3.36-2.12,2.12L.08,152.2l-.08.09V195a5.49,5.49,0,0,1,5,5.47A5.49,5.49,0,0,1,0,206v41.91l.08.08,3.36-3.35,2.12,2.12L2.2,250.08l3.36,3.36-2.12,2.12L.08,252.2l-.08.09V295a5.49,5.49,0,0,1,5,5.47A5.49,5.49,0,0,1,0,306v41.91l.08.08,3.36-3.35,2.12,2.12L2.2,350.08l3.36,3.36-2.12,2.12L.08,352.2l-.08.09V395a5.49,5.49,0,0,1,5,5.47A5.49,5.49,0,0,1,0,406v41.91l.08.08,3.36-3.35,2.12,2.12L2.2,450.08l3.36,3.36-2.12,2.12L.08,452.2l-.08.09V495A5.47,5.47,0,0,1,5,500ZM449.5,456a5.5,5.5,0,1,1,5.5-5.5A5.5,5.5,0,0,1,449.5,456Zm0-100a5.5,5.5,0,1,1,5.5-5.5A5.5,5.5,0,0,1,449.5,356Zm0-100a5.5,5.5,0,1,1,5.5-5.5A5.5,5.5,0,0,1,449.5,256Zm0-100a5.5,5.5,0,1,1,5.5-5.5A5.5,5.5,0,0,1,449.5,156Zm0-111a5.5,5.5,0,1,1-5.5,5.5A5.5,5.5,0,0,1,449.5,45Zm-5.89,51.73,2.12-2.12L449.08,98l3.36-3.35,2.12,2.12-3.36,3.35,3.36,3.36-2.12,2.12-3.36-3.36-3.35,3.36-2.12-2.12,3.35-3.36Zm0,100,2.12-2.12,3.35,3.35,3.36-3.35,2.12,2.12-3.36,3.35,3.36,3.36-2.12,2.12-3.36-3.36-3.35,3.36-2.12-2.12,3.35-3.36Zm0,100,2.12-2.12,3.35,3.35,3.36-3.35,2.12,2.12-3.36,3.35,3.36,3.36-2.12,2.12-3.36-3.36-3.35,3.36-2.12-2.12,3.35-3.36Zm0,100,2.12-2.12,3.35,3.35,3.36-3.35,2.12,2.12-3.36,3.35,3.36,3.36-2.12,2.12-3.36-3.36-3.35,3.36-2.12-2.12,3.35-3.36ZM349.5,456a5.5,5.5,0,1,1,5.5-5.5A5.5,5.5,0,0,1,349.5,456Zm0-100a5.5,5.5,0,1,1,5.5-5.5A5.5,5.5,0,0,1,349.5,356Zm0-100a5.5,5.5,0,1,1,5.5-5.5A5.5,5.5,0,0,1,349.5,256Zm0-100a5.5,5.5,0,1,1,5.5-5.5A5.5,5.5,0,0,1,349.5,156Zm50,150a5.5,5.5,0,1,1,5.5-5.5A5.5,5.5,0,0,1,399.5,306Zm0-100a5.5,5.5,0,1,1,5.5-5.5A5.5,5.5,0,0,1,399.5,206Zm0-100a5.5,5.5,0,1,1,5.5-5.5A5.5,5.5,0,0,1,399.5,106Zm-6.89-59.27,2.12-2.12L398.08,48l3.36-3.35,2.12,2.12-3.36,3.35,3.36,3.36-2.12,2.12-3.36-3.36-3.35,3.36-2.12-2.12L396,50.08Zm0,100,2.12-2.12,3.35,3.35,3.36-3.35,2.12,2.12-3.36,3.35,3.36,3.36-2.12,2.12-3.36-3.36-3.35,3.36-2.12-2.12,3.35-3.36Zm0,100,2.12-2.12,3.35,3.35,3.36-3.35,2.12,2.12-3.36,3.35,3.36,3.36-2.12,2.12-3.36-3.36-3.35,3.36-2.12-2.12,3.35-3.36Zm0,100,2.12-2.12,3.35,3.35,3.36-3.35,2.12,2.12-3.36,3.35,3.36,3.36-2.12,2.12-3.36-3.36-3.35,3.36-2.12-2.12,3.35-3.36ZM405,400.5a5.5,5.5,0,1,1-5.5-5.5A5.5,5.5,0,0,1,405,400.5Zm-12.39,46.23,2.12-2.12,3.35,3.35,3.36-3.35,2.12,2.12-3.36,3.35,3.36,3.36-2.12,2.12-3.36-3.36-3.35,3.36-2.12-2.12,3.35-3.36ZM349.5,45a5.5,5.5,0,1,1-5.5,5.5A5.5,5.5,0,0,1,349.5,45Zm-5.89,51.73,2.12-2.12L349.08,98l3.36-3.35,2.12,2.12-3.36,3.35,3.36,3.36-2.12,2.12-3.36-3.36-3.35,3.36-2.12-2.12,3.35-3.36Zm0,100,2.12-2.12,3.35,3.35,3.36-3.35,2.12,2.12-3.36,3.35,3.36,3.36-2.12,2.12-3.36-3.36-3.35,3.36-2.12-2.12,3.35-3.36Zm0,100,2.12-2.12,3.35,3.35,3.36-3.35,2.12,2.12-3.36,3.35,3.36,3.36-2.12,2.12-3.36-3.36-3.35,3.36-2.12-2.12,3.35-3.36Zm0,100,2.12-2.12,3.35,3.35,3.36-3.35,2.12,2.12-3.36,3.35,3.36,3.36-2.12,2.12-3.36-3.36-3.35,3.36-2.12-2.12,3.35-3.36ZM249.5,456a5.5,5.5,0,1,1,5.5-5.5A5.5,5.5,0,0,1,249.5,456Zm0-100a5.5,5.5,0,1,1,5.5-5.5A5.5,5.5,0,0,1,249.5,356Zm0-100a5.5,5.5,0,1,1,5.5-5.5A5.5,5.5,0,0,1,249.5,256Zm0-100a5.5,5.5,0,1,1,5.5-5.5A5.5,5.5,0,0,1,249.5,156Zm50,150a5.5,5.5,0,1,1,5.5-5.5A5.5,5.5,0,0,1,299.5,306Zm0-100a5.5,5.5,0,1,1,5.5-5.5A5.5,5.5,0,0,1,299.5,206Zm0-100a5.5,5.5,0,1,1,5.5-5.5A5.5,5.5,0,0,1,299.5,106Zm-5.89-59.27,2.12-2.12L299.08,48l3.36-3.35,2.12,2.12-3.36,3.35,3.36,3.36-2.12,2.12-3.36-3.36-3.35,3.36-2.12-2.12L297,50.08Zm0,100,2.12-2.12,3.35,3.35,3.36-3.35,2.12,2.12-3.36,3.35,3.36,3.36-2.12,2.12-3.36-3.36-3.35,3.36-2.12-2.12,3.35-3.36Zm0,100,2.12-2.12,3.35,3.35,3.36-3.35,2.12,2.12-3.36,3.35,3.36,3.36-2.12,2.12-3.36-3.36-3.35,3.36-2.12-2.12,3.35-3.36Zm0,100,2.12-2.12,3.35,3.35,3.36-3.35,2.12,2.12-3.36,3.35,3.36,3.36-2.12,2.12-3.36-3.36-3.35,3.36-2.12-2.12,3.35-3.36ZM305,400.5a5.5,5.5,0,1,1-5.5-5.5A5.5,5.5,0,0,1,305,400.5Zm-11.39,46.23,2.12-2.12,3.35,3.35,3.36-3.35,2.12,2.12-3.36,3.35,3.36,3.36-2.12,2.12-3.36-3.36-3.35,3.36-2.12-2.12,3.35-3.36ZM249.5,45a5.5,5.5,0,1,1-5.5,5.5A5.5,5.5,0,0,1,249.5,45Zm-5.89,51.73,2.12-2.12L249.08,98l3.36-3.35,2.12,2.12-3.36,3.35,3.36,3.36-2.12,2.12-3.36-3.36-3.35,3.36-2.12-2.12,3.35-3.36Zm0,100,2.12-2.12,3.35,3.35,3.36-3.35,2.12,2.12-3.36,3.35,3.36,3.36-2.12,2.12-3.36-3.36-3.35,3.36-2.12-2.12,3.35-3.36Zm0,100,2.12-2.12,3.35,3.35,3.36-3.35,2.12,2.12-3.36,3.35,3.36,3.36-2.12,2.12-3.36-3.36-3.35,3.36-2.12-2.12,3.35-3.36Zm0,100,2.12-2.12,3.35,3.35,3.36-3.35,2.12,2.12-3.36,3.35,3.36,3.36-2.12,2.12-3.36-3.36-3.35,3.36-2.12-2.12,3.35-3.36ZM149.5,456a5.5,5.5,0,1,1,5.5-5.5A5.5,5.5,0,0,1,149.5,456Zm0-100a5.5,5.5,0,1,1,5.5-5.5A5.5,5.5,0,0,1,149.5,356Zm0-100a5.5,5.5,0,1,1,5.5-5.5A5.5,5.5,0,0,1,149.5,256Zm0-100a5.5,5.5,0,1,1,5.5-5.5A5.5,5.5,0,0,1,149.5,156Zm56.06,297.44-2.12,2.12-3.36-3.36-3.35,3.36-2.12-2.12,3.35-3.36-3.35-3.35,2.12-2.12,3.35,3.35,3.36-3.35,2.12,2.12-3.36,3.35Zm0-100-2.12,2.12-3.36-3.36-3.35,3.36-2.12-2.12,3.35-3.36-3.35-3.35,2.12-2.12,3.35,3.35,3.36-3.35,2.12,2.12-3.36,3.35Zm0-100-2.12,2.12-3.36-3.36-3.35,3.36-2.12-2.12,3.35-3.36-3.35-3.35,2.12-2.12,3.35,3.35,3.36-3.35,2.12,2.12-3.36,3.35Zm0-100-2.12,2.12-3.36-3.36-3.35,3.36-2.12-2.12,3.35-3.36-3.35-3.35,2.12-2.12,3.35,3.35,3.36-3.35,2.12,2.12-3.36,3.35ZM194.61,46.73l2.12-2.12L200.08,48l3.36-3.35,2.12,2.12-3.36,3.35,3.36,3.36-2.12,2.12-3.36-3.36-3.35,3.36-2.12-2.12L198,50.08ZM199.5,95a5.5,5.5,0,1,1-5.5,5.5A5.5,5.5,0,0,1,199.5,95Zm0,100a5.5,5.5,0,1,1-5.5,5.5A5.5,5.5,0,0,1,199.5,195Zm0,100a5.5,5.5,0,1,1-5.5,5.5A5.5,5.5,0,0,1,199.5,295Zm0,100a5.5,5.5,0,1,1-5.5,5.5A5.5,5.5,0,0,1,199.5,395Zm-50-350a5.5,5.5,0,1,1-5.5,5.5A5.5,5.5,0,0,1,149.5,45Zm-5.89,51.73,2.12-2.12L149.08,98l3.36-3.35,2.12,2.12-3.36,3.35,3.36,3.36-2.12,2.12-3.36-3.36-3.35,3.36-2.12-2.12,3.35-3.36Zm0,100,2.12-2.12,3.35,3.35,3.36-3.35,2.12,2.12-3.36,3.35,3.36,3.36-2.12,2.12-3.36-3.36-3.35,3.36-2.12-2.12,3.35-3.36Zm0,100,2.12-2.12,3.35,3.35,3.36-3.35,2.12,2.12-3.36,3.35,3.36,3.36-2.12,2.12-3.36-3.36-3.35,3.36-2.12-2.12,3.35-3.36Zm0,100,2.12-2.12,3.35,3.35,3.36-3.35,2.12,2.12-3.36,3.35,3.36,3.36-2.12,2.12-3.36-3.36-3.35,3.36-2.12-2.12,3.35-3.36ZM49.5,456a5.5,5.5,0,1,1,5.5-5.5A5.5,5.5,0,0,1,49.5,456Zm0-100a5.5,5.5,0,1,1,5.5-5.5A5.5,5.5,0,0,1,49.5,356Zm0-100a5.5,5.5,0,1,1,5.5-5.5A5.5,5.5,0,0,1,49.5,256Zm0-100a5.5,5.5,0,1,1,5.5-5.5A5.5,5.5,0,0,1,49.5,156Zm50,150a5.5,5.5,0,1,1,5.5-5.5A5.5,5.5,0,0,1,99.5,306Zm0-100a5.5,5.5,0,1,1,5.5-5.5A5.5,5.5,0,0,1,99.5,206Zm0-100a5.5,5.5,0,1,1,5.5-5.5A5.5,5.5,0,0,1,99.5,106ZM93.61,46.73l2.12-2.12L99.08,48l3.36-3.35,2.12,2.12-3.36,3.35,3.36,3.36-2.12,2.12L99.08,52.2l-3.35,3.36-2.12-2.12L97,50.08Zm0,100,2.12-2.12L99.08,148l3.36-3.35,2.12,2.12-3.36,3.35,3.36,3.36-2.12,2.12-3.36-3.36-3.35,3.36-2.12-2.12L97,150.08Zm0,100,2.12-2.12L99.08,248l3.36-3.35,2.12,2.12-3.36,3.35,3.36,3.36-2.12,2.12-3.36-3.36-3.35,3.36-2.12-2.12L97,250.08Zm0,100,2.12-2.12L99.08,348l3.36-3.35,2.12,2.12-3.36,3.35,3.36,3.36-2.12,2.12-3.36-3.36-3.35,3.36-2.12-2.12L97,350.08ZM105,400.5a5.5,5.5,0,1,1-5.5-5.5A5.5,5.5,0,0,1,105,400.5ZM93.61,446.73l2.12-2.12L99.08,448l3.36-3.35,2.12,2.12-3.36,3.35,3.36,3.36-2.12,2.12-3.36-3.36-3.35,3.36-2.12-2.12L97,450.08ZM49.5,45A5.5,5.5,0,1,1,44,50.5,5.5,5.5,0,0,1,49.5,45ZM43.61,96.73l2.12-2.12L49.08,98l3.36-3.35,2.12,2.12-3.36,3.35,3.36,3.36-2.12,2.12-3.36-3.36-3.35,3.36-2.12-2.12L47,100.08Zm0,100,2.12-2.12L49.08,198l3.36-3.35,2.12,2.12-3.36,3.35,3.36,3.36-2.12,2.12-3.36-3.36-3.35,3.36-2.12-2.12L47,200.08Zm0,100,2.12-2.12L49.08,298l3.36-3.35,2.12,2.12-3.36,3.35,3.36,3.36-2.12,2.12-3.36-3.36-3.35,3.36-2.12-2.12L47,300.08Zm0,100,2.12-2.12L49.08,398l3.36-3.35,2.12,2.12-3.36,3.35,3.36,3.36-2.12,2.12-3.36-3.36-3.35,3.36-2.12-2.12L47,400.08Z"/><circle class="cls-3" cx="49.5" cy="50.5" r="2.5"/><circle class="cls-3" cx="99.5" cy="100.5" r="2.5"/><circle class="cls-3" cx="99.5" cy="200.5" r="2.5"/><circle class="cls-3" cx="99.5" cy="400.5" r="2.5"/><circle class="cls-3" cx="99.5" cy="300.5" r="2.5"/><circle class="cls-3" cx="199.5" cy="100.5" r="2.5"/><circle class="cls-3" cx="149.5" cy="350.5" r="2.5"/><circle class="cls-3" cx="149.5" cy="250.5" r="2.5"/><circle class="cls-3" cx="149.5" cy="150.5" r="2.5"/><circle class="cls-3" cx="249.5" cy="50.5" r="2.5"/><circle class="cls-3" cx="299.5" cy="400.5" r="2.5"/><circle class="cls-3" cx="149.5" cy="450.5" r="2.5"/><circle class="cls-3" cx="299.5" cy="100.5" r="2.5"/><circle class="cls-3" cx="149.5" cy="50.5" r="2.5"/><path class="cls-3" d="M499.5,198a2.5,2.5,0,0,0,0,5,2.73,2.73,0,0,0,.5-.05v-4.9A2.73,2.73,0,0,0,499.5,198Z"/><circle class="cls-3" cx="49.5" cy="250.5" r="2.5"/><circle class="cls-3" cx="49.5" cy="450.5" r="2.5"/><circle class="cls-3" cx="199.5" cy="400.5" r="2.5"/><circle class="cls-3" cx="199.5" cy="300.5" r="2.5"/><circle class="cls-3" cx="199.5" cy="200.5" r="2.5"/><circle class="cls-3" cx="49.5" cy="150.5" r="2.5"/><path class="cls-3" d="M499.5,298a2.5,2.5,0,0,0,0,5,2.73,2.73,0,0,0,.5-.05v-4.9A2.73,2.73,0,0,0,499.5,298Z"/><path class="cls-3" d="M500,498.05a2.73,2.73,0,0,0-.5-.05,2.5,2.5,0,0,0-2.45,2H500Z"/><path class="cls-3" d="M499.5,398a2.5,2.5,0,0,0,0,5,2.73,2.73,0,0,0,.5-.05v-4.9A2.73,2.73,0,0,0,499.5,398Z"/><path class="cls-3" d="M2,500A2.5,2.5,0,0,0,0,498.05V500Z"/><path class="cls-3" d="M399.5,498a2.5,2.5,0,0,0-2.45,2H402A2.5,2.5,0,0,0,399.5,498Z"/><path class="cls-3" d="M299.5,498a2.5,2.5,0,0,0-2.45,2H302A2.5,2.5,0,0,0,299.5,498Z"/><path class="cls-3" d="M99.5,498a2.5,2.5,0,0,0-2.45,2H102A2.5,2.5,0,0,0,99.5,498Z"/><path class="cls-3" d="M199.5,498a2.5,2.5,0,0,0-2.45,2H202A2.5,2.5,0,0,0,199.5,498Z"/><path d="M49.5,56A5.5,5.5,0,1,0,44,50.5,5.5,5.5,0,0,0,49.5,56Zm0-8A2.5,2.5,0,1,1,47,50.5,2.5,2.5,0,0,1,49.5,48Z"/><path d="M99.5,95a5.5,5.5,0,1,0,5.5,5.5A5.5,5.5,0,0,0,99.5,95Zm0,8a2.5,2.5,0,1,1,2.5-2.5A2.5,2.5,0,0,1,99.5,103Z"/><path d="M199.5,106a5.5,5.5,0,1,0-5.5-5.5A5.5,5.5,0,0,0,199.5,106Zm0-8a2.5,2.5,0,1,1-2.5,2.5A2.5,2.5,0,0,1,199.5,98Z"/><path d="M299.5,95a5.5,5.5,0,1,0,5.5,5.5A5.5,5.5,0,0,0,299.5,95Zm0,8a2.5,2.5,0,1,1,2.5-2.5A2.5,2.5,0,0,1,299.5,103Z"/><path d="M399.5,95a5.5,5.5,0,1,0,5.5,5.5A5.5,5.5,0,0,0,399.5,95Zm0,8a2.5,2.5,0,1,1,2.5-2.5A2.5,2.5,0,0,1,399.5,103Z"/><path d="M494,100.5a5.5,5.5,0,0,0,5.5,5.5,4.19,4.19,0,0,0,.5,0v-3a2.73,2.73,0,0,1-.5,0,2.5,2.5,0,0,1,0-5,2.73,2.73,0,0,1,.5,0V95a4.19,4.19,0,0,0-.5,0A5.5,5.5,0,0,0,494,100.5Z"/><path d="M5,100.5A5.49,5.49,0,0,0,0,95v3a2.5,2.5,0,0,1,2,2.45A2.5,2.5,0,0,1,0,103v3A5.49,5.49,0,0,0,5,100.5Z"/><path d="M99.5,195a5.5,5.5,0,1,0,5.5,5.5A5.5,5.5,0,0,0,99.5,195Zm0,8a2.5,2.5,0,1,1,2.5-2.5A2.5,2.5,0,0,1,99.5,203Z"/><path d="M199.5,206a5.5,5.5,0,1,0-5.5-5.5A5.5,5.5,0,0,0,199.5,206Zm0-8a2.5,2.5,0,1,1-2.5,2.5A2.5,2.5,0,0,1,199.5,198Z"/><path d="M299.5,195a5.5,5.5,0,1,0,5.5,5.5A5.5,5.5,0,0,0,299.5,195Zm0,8a2.5,2.5,0,1,1,2.5-2.5A2.5,2.5,0,0,1,299.5,203Z"/><path d="M399.5,195a5.5,5.5,0,1,0,5.5,5.5A5.5,5.5,0,0,0,399.5,195Zm0,8a2.5,2.5,0,1,1,2.5-2.5A2.5,2.5,0,0,1,399.5,203Z"/><path d="M494,200.5a5.5,5.5,0,0,0,5.5,5.5,4.19,4.19,0,0,0,.5,0v-3a2.73,2.73,0,0,1-.5.05,2.5,2.5,0,0,1,0-5,2.73,2.73,0,0,1,.5.05v-3a4.19,4.19,0,0,0-.5,0A5.5,5.5,0,0,0,494,200.5Z"/><path d="M5,200.5A5.49,5.49,0,0,0,0,195v3a2.5,2.5,0,0,1,2,2.45A2.5,2.5,0,0,1,0,203v3A5.49,5.49,0,0,0,5,200.5Z"/><path d="M99.5,295a5.5,5.5,0,1,0,5.5,5.5A5.5,5.5,0,0,0,99.5,295Zm0,8a2.5,2.5,0,1,1,2.5-2.5A2.5,2.5,0,0,1,99.5,303Z"/><path d="M199.5,306a5.5,5.5,0,1,0-5.5-5.5A5.5,5.5,0,0,0,199.5,306Zm0-8a2.5,2.5,0,1,1-2.5,2.5A2.5,2.5,0,0,1,199.5,298Z"/><path d="M299.5,295a5.5,5.5,0,1,0,5.5,5.5A5.5,5.5,0,0,0,299.5,295Zm0,8a2.5,2.5,0,1,1,2.5-2.5A2.5,2.5,0,0,1,299.5,303Z"/><path d="M399.5,295a5.5,5.5,0,1,0,5.5,5.5A5.5,5.5,0,0,0,399.5,295Zm0,8a2.5,2.5,0,1,1,2.5-2.5A2.5,2.5,0,0,1,399.5,303Z"/><path d="M494,300.5a5.5,5.5,0,0,0,5.5,5.5,4.19,4.19,0,0,0,.5,0v-3a2.73,2.73,0,0,1-.5.05,2.5,2.5,0,0,1,0-5,2.73,2.73,0,0,1,.5.05v-3a4.19,4.19,0,0,0-.5,0A5.5,5.5,0,0,0,494,300.5Z"/><path d="M5,300.5A5.49,5.49,0,0,0,0,295v3a2.5,2.5,0,0,1,2,2.45A2.5,2.5,0,0,1,0,303v3A5.49,5.49,0,0,0,5,300.5Z"/><path d="M99.5,395a5.5,5.5,0,1,0,5.5,5.5A5.5,5.5,0,0,0,99.5,395Zm0,8a2.5,2.5,0,1,1,2.5-2.5A2.5,2.5,0,0,1,99.5,403Z"/><path d="M199.5,406a5.5,5.5,0,1,0-5.5-5.5A5.5,5.5,0,0,0,199.5,406Zm0-8a2.5,2.5,0,1,1-2.5,2.5A2.5,2.5,0,0,1,199.5,398Z"/><path d="M299.5,395a5.5,5.5,0,1,0,5.5,5.5A5.5,5.5,0,0,0,299.5,395Zm0,8a2.5,2.5,0,1,1,2.5-2.5A2.5,2.5,0,0,1,299.5,403Z"/><path d="M399.5,395a5.5,5.5,0,1,0,5.5,5.5A5.5,5.5,0,0,0,399.5,395Zm0,8a2.5,2.5,0,1,1,2.5-2.5A2.5,2.5,0,0,1,399.5,403Z"/><path d="M494,400.5a5.5,5.5,0,0,0,5.5,5.5,4.19,4.19,0,0,0,.5,0v-3a2.73,2.73,0,0,1-.5.05,2.5,2.5,0,0,1,0-5,2.73,2.73,0,0,1,.5.05v-3a4.19,4.19,0,0,0-.5,0A5.5,5.5,0,0,0,494,400.5Z"/><path d="M5,400.5A5.49,5.49,0,0,0,0,395v3a2.5,2.5,0,0,1,2,2.45A2.5,2.5,0,0,1,0,403v3A5.49,5.49,0,0,0,5,400.5Z"/><path d="M99.5,495A5.49,5.49,0,0,0,94,500h3a2.5,2.5,0,0,1,4.9,0h3A5.49,5.49,0,0,0,99.5,495Z"/><path d="M199.5,495a5.49,5.49,0,0,0-5.47,5h3a2.5,2.5,0,0,1,4.9,0h3A5.49,5.49,0,0,0,199.5,495Z"/><path d="M299.5,495a5.49,5.49,0,0,0-5.47,5h3a2.5,2.5,0,0,1,4.9,0h3A5.49,5.49,0,0,0,299.5,495Z"/><path d="M399.5,495a5.49,5.49,0,0,0-5.47,5h3a2.5,2.5,0,0,1,4.9,0h3A5.49,5.49,0,0,0,399.5,495Z"/><path d="M494,500h3a2.5,2.5,0,0,1,2.45-2,2.73,2.73,0,0,1,.5.05v-3a4.19,4.19,0,0,0-.5,0A5.49,5.49,0,0,0,494,500Z"/><path d="M0,495v3A2.5,2.5,0,0,1,2,500H5A5.47,5.47,0,0,0,0,495Z"/><path d="M99.5,6A5.5,5.5,0,0,0,105,.5a4.07,4.07,0,0,0,0-.5h-3a2.73,2.73,0,0,1,0,.5,2.5,2.5,0,0,1-5,0,2.73,2.73,0,0,1,0-.5H94a4.07,4.07,0,0,0,0,.5A5.5,5.5,0,0,0,99.5,6Z"/><path d="M199.5,6A5.5,5.5,0,0,0,205,.5a4.07,4.07,0,0,0,0-.5h-3a2.73,2.73,0,0,1,.05.5,2.5,2.5,0,0,1-5,0,2.73,2.73,0,0,1,.05-.5h-3a4.07,4.07,0,0,0,0,.5A5.5,5.5,0,0,0,199.5,6Z"/><path d="M299.5,6A5.5,5.5,0,0,0,305,.5a4.07,4.07,0,0,0,0-.5h-3a2.73,2.73,0,0,1,.05.5,2.5,2.5,0,0,1-5,0,2.73,2.73,0,0,1,.05-.5h-3a4.07,4.07,0,0,0,0,.5A5.5,5.5,0,0,0,299.5,6Z"/><path d="M399.5,6A5.5,5.5,0,0,0,405,.5a4.07,4.07,0,0,0,0-.5h-3a2.73,2.73,0,0,1,.05.5,2.5,2.5,0,0,1-5,0,2.73,2.73,0,0,1,.05-.5h-3a4.07,4.07,0,0,0,0,.5A5.5,5.5,0,0,0,399.5,6Z"/><path d="M499.5,6a4.19,4.19,0,0,0,.5,0V3a2.73,2.73,0,0,1-.5,0A2.5,2.5,0,0,1,497,.5a2.73,2.73,0,0,1,.05-.5h-3a4.07,4.07,0,0,0,0,.5A5.5,5.5,0,0,0,499.5,6Z"/><path d="M5,.5A4.07,4.07,0,0,0,5,0H2A2.73,2.73,0,0,1,2,.5,2.5,2.5,0,0,1,0,3V6A5.49,5.49,0,0,0,5,.5Z"/><path d="M149.5,56a5.5,5.5,0,1,0-5.5-5.5A5.5,5.5,0,0,0,149.5,56Zm0-8a2.5,2.5,0,1,1-2.5,2.5A2.5,2.5,0,0,1,149.5,48Z"/><path d="M249.5,56a5.5,5.5,0,1,0-5.5-5.5A5.5,5.5,0,0,0,249.5,56Zm0-8a2.5,2.5,0,1,1-2.5,2.5A2.5,2.5,0,0,1,249.5,48Z"/><path d="M349.5,56a5.5,5.5,0,1,0-5.5-5.5A5.5,5.5,0,0,0,349.5,56Zm0-8a2.5,2.5,0,1,1-2.5,2.5A2.5,2.5,0,0,1,349.5,48Z"/><path d="M449.5,56a5.5,5.5,0,1,0-5.5-5.5A5.5,5.5,0,0,0,449.5,56Zm0-8a2.5,2.5,0,1,1-2.5,2.5A2.5,2.5,0,0,1,449.5,48Z"/><path d="M49.5,145a5.5,5.5,0,1,0,5.5,5.5A5.5,5.5,0,0,0,49.5,145Zm0,8a2.5,2.5,0,1,1,2.5-2.5A2.5,2.5,0,0,1,49.5,153Z"/><path d="M149.5,145a5.5,5.5,0,1,0,5.5,5.5A5.5,5.5,0,0,0,149.5,145Zm0,8a2.5,2.5,0,1,1,2.5-2.5A2.5,2.5,0,0,1,149.5,153Z"/><path d="M249.5,145a5.5,5.5,0,1,0,5.5,5.5A5.5,5.5,0,0,0,249.5,145Zm0,8a2.5,2.5,0,1,1,2.5-2.5A2.5,2.5,0,0,1,249.5,153Z"/><path d="M349.5,145a5.5,5.5,0,1,0,5.5,5.5A5.5,5.5,0,0,0,349.5,145Zm0,8a2.5,2.5,0,1,1,2.5-2.5A2.5,2.5,0,0,1,349.5,153Z"/><path d="M449.5,145a5.5,5.5,0,1,0,5.5,5.5A5.5,5.5,0,0,0,449.5,145Zm0,8a2.5,2.5,0,1,1,2.5-2.5A2.5,2.5,0,0,1,449.5,153Z"/><path d="M49.5,245a5.5,5.5,0,1,0,5.5,5.5A5.5,5.5,0,0,0,49.5,245Zm0,8a2.5,2.5,0,1,1,2.5-2.5A2.5,2.5,0,0,1,49.5,253Z"/><path d="M149.5,245a5.5,5.5,0,1,0,5.5,5.5A5.5,5.5,0,0,0,149.5,245Zm0,8a2.5,2.5,0,1,1,2.5-2.5A2.5,2.5,0,0,1,149.5,253Z"/><path d="M249.5,245a5.5,5.5,0,1,0,5.5,5.5A5.5,5.5,0,0,0,249.5,245Zm0,8a2.5,2.5,0,1,1,2.5-2.5A2.5,2.5,0,0,1,249.5,253Z"/><path d="M349.5,245a5.5,5.5,0,1,0,5.5,5.5A5.5,5.5,0,0,0,349.5,245Zm0,8a2.5,2.5,0,1,1,2.5-2.5A2.5,2.5,0,0,1,349.5,253Z"/><path d="M449.5,245a5.5,5.5,0,1,0,5.5,5.5A5.5,5.5,0,0,0,449.5,245Zm0,8a2.5,2.5,0,1,1,2.5-2.5A2.5,2.5,0,0,1,449.5,253Z"/><path d="M49.5,345a5.5,5.5,0,1,0,5.5,5.5A5.5,5.5,0,0,0,49.5,345Zm0,8a2.5,2.5,0,1,1,2.5-2.5A2.5,2.5,0,0,1,49.5,353Z"/><path d="M149.5,345a5.5,5.5,0,1,0,5.5,5.5A5.5,5.5,0,0,0,149.5,345Zm0,8a2.5,2.5,0,1,1,2.5-2.5A2.5,2.5,0,0,1,149.5,353Z"/><path d="M249.5,345a5.5,5.5,0,1,0,5.5,5.5A5.5,5.5,0,0,0,249.5,345Zm0,8a2.5,2.5,0,1,1,2.5-2.5A2.5,2.5,0,0,1,249.5,353Z"/><path d="M349.5,345a5.5,5.5,0,1,0,5.5,5.5A5.5,5.5,0,0,0,349.5,345Zm0,8a2.5,2.5,0,1,1,2.5-2.5A2.5,2.5,0,0,1,349.5,353Z"/><path d="M449.5,345a5.5,5.5,0,1,0,5.5,5.5A5.5,5.5,0,0,0,449.5,345Zm0,8a2.5,2.5,0,1,1,2.5-2.5A2.5,2.5,0,0,1,449.5,353Z"/><path d="M49.5,445a5.5,5.5,0,1,0,5.5,5.5A5.5,5.5,0,0,0,49.5,445Zm0,8a2.5,2.5,0,1,1,2.5-2.5A2.5,2.5,0,0,1,49.5,453Z"/><path d="M149.5,445a5.5,5.5,0,1,0,5.5,5.5A5.5,5.5,0,0,0,149.5,445Zm0,8a2.5,2.5,0,1,1,2.5-2.5A2.5,2.5,0,0,1,149.5,453Z"/><path d="M249.5,445a5.5,5.5,0,1,0,5.5,5.5A5.5,5.5,0,0,0,249.5,445Zm0,8a2.5,2.5,0,1,1,2.5-2.5A2.5,2.5,0,0,1,249.5,453Z"/><path d="M349.5,445a5.5,5.5,0,1,0,5.5,5.5A5.5,5.5,0,0,0,349.5,445Zm0,8a2.5,2.5,0,1,1,2.5-2.5A2.5,2.5,0,0,1,349.5,453Z"/><path d="M449.5,445a5.5,5.5,0,1,0,5.5,5.5A5.5,5.5,0,0,0,449.5,445Zm0,8a2.5,2.5,0,1,1,2.5-2.5A2.5,2.5,0,0,1,449.5,453Z"/><rect x="195.84" y="144.97" width="3" height="4.75" transform="translate(-46.39 182.7) rotate(-45)"/><rect x="201.32" y="150.45" width="3" height="4.75" transform="translate(-48.66 188.18) rotate(-45)"/><rect x="194.97" y="151.32" width="4.75" height="3" transform="translate(-50.26 184.3) rotate(-45)"/><rect x="200.45" y="145.85" width="4.75" height="3" transform="translate(-44.79 186.56) rotate(-45)"/><rect x="198.58" y="148.58" width="3" height="3" transform="translate(-47.52 185.44) rotate(-45)"/><rect x="300.32" y="150.45" width="3" height="4.75" transform="translate(-19.66 258.18) rotate(-45)"/><rect x="294.84" y="144.97" width="3" height="4.75" transform="translate(-17.39 252.7) rotate(-45)"/><rect x="299.45" y="145.85" width="4.75" height="3" transform="translate(-15.79 256.58) rotate(-45)"/><rect x="293.97" y="151.32" width="4.75" height="3" transform="translate(-21.27 254.3) rotate(-45)"/><rect x="297.58" y="148.58" width="3" height="3" transform="translate(-18.52 255.45) rotate(-45)"/><rect x="399.32" y="150.45" width="3" height="4.75" transform="translate(9.34 328.18) rotate(-45)"/><rect x="393.84" y="144.97" width="3" height="4.75" transform="translate(11.61 322.71) rotate(-45)"/><rect x="398.45" y="145.85" width="4.75" height="3" transform="translate(13.21 326.58) rotate(-45)"/><rect x="392.97" y="151.32" width="4.75" height="3" transform="translate(7.73 324.3) rotate(-45)"/><rect x="396.58" y="148.58" width="3" height="3" transform="translate(10.47 325.45) rotate(-45)"/><polygon points="494.61 146.73 497.96 150.08 500 148.05 500 147.88 496.73 144.61 494.61 146.73"/><polygon points="497.96 150.08 494.61 153.44 496.73 155.56 500 152.29 500 152.12 497.96 150.08"/><polygon points="500 148.05 497.96 150.08 500 152.12 500 148.05"/><polygon points="0.08 147.96 0 147.88 0 148.05 0.08 147.96"/><rect x="1.32" y="150.45" width="3" height="4.75" transform="translate(-107.23 46.76) rotate(-45)"/><polygon points="0 152.12 0 152.29 0.08 152.21 0 152.12"/><rect x="0.45" y="145.85" width="4.75" height="3" transform="translate(-103.36 45.15) rotate(-45)"/><polygon points="0 152.12 0.08 152.21 2.2 150.08 0.08 147.96 0 148.05 0 152.12"/><rect x="94.84" y="144.97" width="3" height="4.75" transform="translate(-75.97 111.28) rotate(-45)"/><rect x="100.32" y="150.45" width="3" height="4.75" transform="translate(-78.24 116.76) rotate(-45)"/><rect x="99.45" y="145.85" width="4.75" height="3" transform="translate(-74.37 115.16) rotate(-45)"/><rect x="93.97" y="151.32" width="4.75" height="3" transform="translate(-79.84 112.88) rotate(-45)"/><rect x="97.58" y="148.58" width="3" height="3" transform="translate(-77.11 114.03) rotate(-45)"/><rect x="195.84" y="44.97" width="3" height="4.75" transform="translate(24.32 153.41) rotate(-45)"/><rect x="201.32" y="50.45" width="3" height="4.75" transform="translate(22.05 158.89) rotate(-45)"/><rect x="200.45" y="45.85" width="4.75" height="3" transform="translate(25.93 157.28) rotate(-45)"/><rect x="194.97" y="51.32" width="4.75" height="3" transform="translate(20.45 155.01) rotate(-45)"/><rect x="198.58" y="48.58" width="3" height="3" transform="translate(23.19 156.15) rotate(-45)"/><rect x="294.84" y="44.97" width="3" height="4.75" transform="translate(53.32 223.41) rotate(-45)"/><rect x="300.32" y="50.45" width="3" height="4.75" transform="translate(51.05 228.89) rotate(-45)"/><rect x="293.97" y="51.32" width="4.75" height="3" transform="translate(49.44 225.01) rotate(-45)"/><rect x="299.45" y="45.85" width="4.75" height="3" transform="translate(54.92 227.29) rotate(-45)"/><rect x="297.58" y="48.58" width="3" height="3" transform="translate(52.19 226.16) rotate(-45)"/><rect x="393.84" y="44.97" width="3" height="4.75" transform="translate(82.32 293.42) rotate(-45)"/><rect x="399.32" y="50.45" width="3" height="4.75" transform="translate(80.05 298.9) rotate(-45)"/><rect x="392.97" y="51.32" width="4.75" height="3" transform="translate(78.44 295.01) rotate(-45)"/><rect x="398.45" y="45.85" width="4.75" height="3" transform="translate(83.92 297.29) rotate(-45)"/><rect x="396.58" y="48.58" width="3" height="3" transform="translate(81.19 296.16) rotate(-45)"/><polygon points="494.61 46.73 497.96 50.08 500 48.05 500 47.88 496.73 44.61 494.61 46.73"/><polygon points="497.96 50.08 494.61 53.44 496.73 55.56 500 52.29 500 52.12 497.96 50.08"/><polygon points="500 48.05 497.96 50.08 500 52.12 500 48.05"/><polygon points="0.08 47.96 0 47.88 0 48.05 0.08 47.96"/><rect x="1.32" y="50.45" width="3" height="4.75" transform="translate(-36.52 17.47) rotate(-45)"/><polygon points="0 52.12 0 52.29 0.08 52.2 0 52.12"/><rect x="0.45" y="45.85" width="4.75" height="3" transform="translate(-32.65 15.86) rotate(-45)"/><polygon points="0 52.12 0.08 52.2 2.2 50.08 0.08 47.96 0 48.05 0 52.12"/><rect x="44.84" y="94.97" width="3" height="4.75" transform="translate(-55.26 61.28) rotate(-45)"/><rect x="50.32" y="100.45" width="3" height="4.75" transform="translate(-57.53 66.76) rotate(-45)"/><rect x="43.97" y="101.32" width="4.75" height="3" transform="translate(-59.13 62.88) rotate(-45)"/><rect x="49.45" y="95.85" width="4.75" height="3" transform="translate(-53.66 65.16) rotate(-45)"/><rect x="47.58" y="98.58" width="3" height="3" transform="translate(-56.39 64.02) rotate(-45)"/><rect x="144.84" y="94.97" width="3" height="4.75" transform="translate(-25.97 131.99) rotate(-45)"/><rect x="150.32" y="100.45" width="3" height="4.75" transform="translate(-28.24 137.47) rotate(-45)"/><rect x="149.45" y="95.85" width="4.75" height="3" transform="translate(-24.37 135.87) rotate(-45)"/><rect x="143.97" y="101.32" width="4.75" height="3" transform="translate(-29.84 133.59) rotate(-45)"/><rect x="147.58" y="98.58" width="3" height="3" transform="translate(-27.1 134.74) rotate(-45)"/><rect x="250.32" y="100.45" width="3" height="4.75" transform="translate(1.05 208.18) rotate(-45)"/><rect x="244.84" y="94.97" width="3" height="4.75" transform="translate(3.32 202.7) rotate(-45)"/><rect x="243.97" y="101.32" width="4.75" height="3" transform="translate(-0.56 204.3) rotate(-45)"/><rect x="249.45" y="95.85" width="4.75" height="3" transform="translate(4.92 206.58) rotate(-45)"/><rect x="247.58" y="98.58" width="3" height="3" transform="translate(2.19 205.45) rotate(-45)"/><rect x="344.84" y="94.97" width="3" height="4.75" transform="translate(32.61 273.41) rotate(-45)"/><rect x="350.32" y="100.45" width="3" height="4.75" transform="translate(30.34 278.89) rotate(-45)"/><rect x="343.97" y="101.32" width="4.75" height="3" transform="translate(28.73 275.01) rotate(-45)"/><rect x="349.45" y="95.85" width="4.75" height="3" transform="translate(34.21 277.29) rotate(-45)"/><rect x="347.58" y="98.58" width="3" height="3" transform="translate(31.48 276.16) rotate(-45)"/><rect x="450.32" y="100.45" width="3" height="4.75" transform="translate(59.63 349.6) rotate(-45)"/><rect x="444.84" y="94.97" width="3" height="4.75" transform="translate(61.9 344.12) rotate(-45)"/><rect x="443.97" y="101.32" width="4.75" height="3" transform="translate(58.02 345.72) rotate(-45)"/><rect x="449.45" y="95.85" width="4.75" height="3" transform="translate(63.5 348) rotate(-45)"/><rect x="447.58" y="98.58" width="3" height="3" transform="translate(60.77 346.87) rotate(-45)"/><rect x="44.84" y="194.97" width="3" height="4.75" transform="translate(-125.97 90.57) rotate(-45)"/><rect x="50.32" y="200.45" width="3" height="4.75" transform="translate(-128.24 96.05) rotate(-45)"/><rect x="43.97" y="201.32" width="4.75" height="3" transform="translate(-129.84 92.17) rotate(-45)"/><rect x="49.45" y="195.85" width="4.75" height="3" transform="translate(-124.37 94.44) rotate(-45)"/><rect x="47.58" y="198.58" width="3" height="3" transform="translate(-127.11 93.31) rotate(-45)"/><rect x="144.84" y="194.97" width="3" height="4.75" transform="translate(-96.68 161.28) rotate(-45)"/><rect x="150.32" y="200.45" width="3" height="4.75" transform="translate(-98.95 166.76) rotate(-45)"/><rect x="143.97" y="201.32" width="4.75" height="3" transform="translate(-100.55 162.88) rotate(-45)"/><rect x="149.45" y="195.85" width="4.75" height="3" transform="translate(-95.08 165.16) rotate(-45)"/><rect x="147.58" y="198.58" width="3" height="3" transform="translate(-97.82 164.03) rotate(-45)"/><rect x="250.32" y="200.45" width="3" height="4.75" transform="translate(-69.66 237.47) rotate(-45)"/><rect x="244.84" y="194.97" width="3" height="4.75" transform="translate(-67.39 231.99) rotate(-45)"/><rect x="243.97" y="201.32" width="4.75" height="3" transform="translate(-71.27 233.59) rotate(-45)"/><rect x="249.45" y="195.85" width="4.75" height="3" transform="translate(-65.79 235.87) rotate(-45)"/><rect x="247.58" y="198.58" width="3" height="3" transform="translate(-68.52 234.74) rotate(-45)"/><rect x="350.32" y="200.45" width="3" height="4.75" transform="translate(-40.37 308.18) rotate(-45)"/><rect x="344.84" y="194.97" width="3" height="4.75" transform="translate(-38.1 302.7) rotate(-45)"/><rect x="349.45" y="195.85" width="4.75" height="3" transform="translate(-36.5 306.58) rotate(-45)"/><rect x="343.97" y="201.32" width="4.75" height="3" transform="translate(-41.98 304.3) rotate(-45)"/><rect x="347.58" y="198.58" width="3" height="3" transform="translate(-39.23 305.45) rotate(-45)"/><rect x="450.32" y="200.45" width="3" height="4.75" transform="translate(-11.08 378.89) rotate(-45)"/><rect x="444.84" y="194.97" width="3" height="4.75" transform="translate(-8.81 373.41) rotate(-45)"/><rect x="443.97" y="201.32" width="4.75" height="3" transform="translate(-12.69 375) rotate(-45)"/><rect x="449.45" y="195.85" width="4.75" height="3" transform="translate(-7.21 377.29) rotate(-45)"/><rect x="447.58" y="198.58" width="3" height="3" transform="translate(-9.94 376.16) rotate(-45)"/><rect x="44.84" y="294.97" width="3" height="4.75" transform="translate(-196.68 119.86) rotate(-45)"/><rect x="50.32" y="300.45" width="3" height="4.75" transform="translate(-198.95 125.34) rotate(-45)"/><rect x="49.45" y="295.85" width="4.75" height="3" transform="translate(-195.08 123.73) rotate(-45)"/><rect x="43.97" y="301.32" width="4.75" height="3" transform="translate(-200.55 121.46) rotate(-45)"/><rect x="47.58" y="298.58" width="3" height="3" transform="translate(-197.82 122.61) rotate(-45)"/><rect x="144.84" y="294.97" width="3" height="4.75" transform="translate(-167.39 190.57) rotate(-45)"/><rect x="150.32" y="300.45" width="3" height="4.75" transform="translate(-169.66 196.05) rotate(-45)"/><rect x="149.45" y="295.85" width="4.75" height="3" transform="translate(-165.79 194.44) rotate(-45)"/><rect x="143.97" y="301.32" width="4.75" height="3" transform="translate(-171.26 192.17) rotate(-45)"/><rect x="147.58" y="298.58" width="3" height="3" transform="translate(-168.53 193.32) rotate(-45)"/><rect x="244.84" y="294.97" width="3" height="4.75" transform="translate(-138.1 261.28) rotate(-45)"/><rect x="250.32" y="300.45" width="3" height="4.75" transform="translate(-140.37 266.76) rotate(-45)"/><rect x="243.97" y="301.32" width="4.75" height="3" transform="translate(-141.97 262.87) rotate(-45)"/><rect x="249.45" y="295.85" width="4.75" height="3" transform="translate(-136.5 265.16) rotate(-45)"/><rect x="247.58" y="298.58" width="3" height="3" transform="translate(-139.24 264.03) rotate(-45)"/><rect x="344.84" y="294.97" width="3" height="4.75" transform="translate(-108.81 331.99) rotate(-45)"/><rect x="350.32" y="300.45" width="3" height="4.75" transform="translate(-111.08 337.47) rotate(-45)"/><rect x="349.45" y="295.85" width="4.75" height="3" transform="translate(-107.21 335.87) rotate(-45)"/><rect x="343.97" y="301.32" width="4.75" height="3" transform="translate(-112.69 333.58) rotate(-45)"/><rect x="347.58" y="298.58" width="3" height="3" transform="translate(-109.95 334.74) rotate(-45)"/><rect x="444.84" y="294.97" width="3" height="4.75" transform="translate(-79.52 402.7) rotate(-45)"/><rect x="450.32" y="300.45" width="3" height="4.75" transform="translate(-81.79 408.18) rotate(-45)"/><rect x="443.97" y="301.32" width="4.75" height="3" transform="translate(-83.4 404.29) rotate(-45)"/><rect x="449.45" y="295.85" width="4.75" height="3" transform="translate(-77.92 406.58) rotate(-45)"/><rect x="447.58" y="298.58" width="3" height="3" transform="translate(-80.66 405.45) rotate(-45)"/><rect x="50.32" y="400.45" width="3" height="4.75" transform="translate(-269.66 154.63) rotate(-45)"/><rect x="44.84" y="394.97" width="3" height="4.75" transform="translate(-267.39 149.15) rotate(-45)"/><rect x="43.97" y="401.32" width="4.75" height="3" transform="translate(-271.26 150.74) rotate(-45)"/><rect x="49.45" y="395.85" width="4.75" height="3" transform="translate(-265.79 153.02) rotate(-45)"/><rect x="47.58" y="398.58" width="3" height="3" transform="translate(-268.53 151.9) rotate(-45)"/><rect x="150.32" y="400.45" width="3" height="4.75" transform="translate(-240.37 225.34) rotate(-45)"/><rect x="144.84" y="394.97" width="3" height="4.75" transform="translate(-238.1 219.86) rotate(-45)"/><rect x="143.97" y="401.32" width="4.75" height="3" transform="translate(-241.97 221.45) rotate(-45)"/><rect x="149.45" y="395.85" width="4.75" height="3" transform="translate(-236.5 223.73) rotate(-45)"/><rect x="147.58" y="398.58" width="3" height="3" transform="translate(-239.24 222.61) rotate(-45)"/><rect x="250.32" y="400.45" width="3" height="4.75" transform="translate(-211.08 296.05) rotate(-45)"/><rect x="244.84" y="394.97" width="3" height="4.75" transform="translate(-208.81 290.57) rotate(-45)"/><rect x="249.45" y="395.85" width="4.75" height="3" transform="translate(-207.21 294.44) rotate(-45)"/><rect x="243.97" y="401.32" width="4.75" height="3" transform="translate(-212.68 292.16) rotate(-45)"/><rect x="247.58" y="398.58" width="3" height="3" transform="translate(-209.95 293.32) rotate(-45)"/><rect x="344.84" y="394.97" width="3" height="4.75" transform="translate(-179.52 361.28) rotate(-45)"/><rect x="350.32" y="400.45" width="3" height="4.75" transform="translate(-181.79 366.76) rotate(-45)"/><rect x="343.97" y="401.32" width="4.75" height="3" transform="translate(-183.4 362.87) rotate(-45)"/><rect x="349.45" y="395.85" width="4.75" height="3" transform="translate(-177.92 365.16) rotate(-45)"/><rect x="347.58" y="398.58" width="3" height="3" transform="translate(-180.66 364.03) rotate(-45)"/><rect x="450.32" y="400.45" width="3" height="4.75" transform="translate(-152.5 437.47) rotate(-45)"/><rect x="444.84" y="394.97" width="3" height="4.75" transform="translate(-150.23 431.99) rotate(-45)"/><rect x="449.45" y="395.85" width="4.75" height="3" transform="translate(-148.63 435.87) rotate(-45)"/><rect x="443.97" y="401.32" width="4.75" height="3" transform="translate(-154.11 433.58) rotate(-45)"/><rect x="447.58" y="398.58" width="3" height="3" transform="translate(-151.37 434.75) rotate(-45)"/><polygon points="49.08 497.96 45.73 494.61 43.61 496.73 46.88 500 47.05 500 49.08 497.96"/><polygon points="52.44 494.61 49.08 497.96 51.12 500 51.29 500 54.56 496.73 52.44 494.61"/><polygon points="51.12 500 49.08 497.96 47.05 500 51.12 500"/><polygon points="149.08 497.96 145.73 494.61 143.61 496.73 146.88 500 147.05 500 149.08 497.96"/><polygon points="152.44 494.61 149.08 497.96 151.12 500 151.29 500 154.56 496.73 152.44 494.61"/><polygon points="151.12 500 149.08 497.96 147.05 500 151.12 500"/><polygon points="249.08 497.96 245.73 494.61 243.61 496.73 246.88 500 247.05 500 249.08 497.96"/><polygon points="252.44 494.61 249.08 497.96 251.12 500 251.29 500 254.56 496.73 252.44 494.61"/><polygon points="251.12 500 249.08 497.96 247.05 500 251.12 500"/><polygon points="349.08 497.96 345.73 494.61 343.61 496.73 346.88 500 347.05 500 349.08 497.96"/><polygon points="352.44 494.61 349.08 497.96 351.12 500 351.29 500 354.56 496.73 352.44 494.61"/><polygon points="351.12 500 349.08 497.96 347.05 500 351.12 500"/><polygon points="449.08 497.96 445.73 494.61 443.61 496.73 446.88 500 447.05 500 449.08 497.96"/><polygon points="452.44 494.61 449.08 497.96 451.12 500 451.29 500 454.56 496.73 452.44 494.61"/><polygon points="451.12 500 449.08 497.96 447.05 500 451.12 500"/><polygon points="47.05 0 46.88 0 46.96 0.08 47.05 0"/><rect x="50.32" y="0.45" width="3" height="4.75" transform="translate(13.18 37.47) rotate(-45)"/><polygon points="51.2 0.08 51.29 0 51.12 0 51.2 0.08"/><rect x="43.97" y="1.32" width="4.75" height="3" transform="translate(11.58 33.6) rotate(-45)"/><polygon points="47.05 0 46.96 0.08 49.08 2.21 51.2 0.08 51.12 0 47.05 0"/><rect x="150.32" y="0.45" width="3" height="4.75" transform="translate(42.47 108.18) rotate(-45)"/><polygon points="147.05 0 146.88 0 146.96 0.08 147.05 0"/><polygon points="151.2 0.08 151.29 0 151.12 0 151.2 0.08"/><rect x="143.97" y="1.32" width="4.75" height="3" transform="translate(40.87 104.31) rotate(-45)"/><polygon points="147.05 0 146.96 0.08 149.08 2.21 151.2 0.08 151.12 0 147.05 0"/><polygon points="247.05 0 246.88 0 246.96 0.08 247.05 0"/><rect x="250.32" y="0.45" width="3" height="4.75" transform="translate(71.76 178.89) rotate(-45)"/><rect x="243.97" y="1.32" width="4.75" height="3" transform="translate(70.16 175.02) rotate(-45)"/><polygon points="251.2 0.08 251.29 0 251.12 0 251.2 0.08"/><polygon points="247.05 0 246.96 0.08 249.08 2.21 251.2 0.08 251.12 0 247.05 0"/><polygon points="347.05 0 346.88 0 346.96 0.08 347.05 0"/><rect x="350.32" y="0.45" width="3" height="4.75" transform="translate(101.05 249.6) rotate(-45)"/><rect x="343.97" y="1.32" width="4.75" height="3" transform="translate(99.45 245.73) rotate(-45)"/><polygon points="351.2 0.08 351.29 0 351.12 0 351.2 0.08"/><polygon points="347.05 0 346.96 0.08 349.08 2.21 351.2 0.08 351.12 0 347.05 0"/><rect x="450.32" y="0.45" width="3" height="4.75" transform="translate(130.34 320.31) rotate(-45)"/><polygon points="447.05 0 446.88 0 446.96 0.08 447.05 0"/><polygon points="451.2 0.08 451.29 0 451.12 0 451.2 0.08"/><rect x="443.97" y="1.32" width="4.75" height="3" transform="translate(128.74 316.44) rotate(-45)"/><polygon points="447.05 0 446.96 0.08 449.08 2.21 451.2 0.08 451.12 0 447.05 0"/><rect x="94.84" y="44.97" width="3" height="4.75" transform="translate(-5.26 81.99) rotate(-45)"/><rect x="100.32" y="50.45" width="3" height="4.75" transform="translate(-7.53 87.47) rotate(-45)"/><rect x="99.45" y="45.85" width="4.75" height="3" transform="translate(-3.66 85.87) rotate(-45)"/><rect x="93.97" y="51.32" width="4.75" height="3" transform="translate(-9.13 83.59) rotate(-45)"/><rect x="97.58" y="48.58" width="3" height="3" transform="translate(-6.39 84.73) rotate(-45)"/><rect x="195.84" y="244.97" width="3" height="4.75" transform="translate(-117.1 211.99) rotate(-45)"/><rect x="201.32" y="250.45" width="3" height="4.75" transform="translate(-119.37 217.47) rotate(-45)"/><rect x="194.97" y="251.32" width="4.75" height="3" transform="translate(-120.97 213.59) rotate(-45)"/><rect x="200.45" y="245.85" width="4.75" height="3" transform="translate(-115.49 215.85) rotate(-45)"/><rect x="198.58" y="248.58" width="3" height="3" transform="translate(-118.23 214.73) rotate(-45)"/><rect x="300.32" y="250.45" width="3" height="4.75" transform="translate(-90.37 287.47) rotate(-45)"/><rect x="294.84" y="244.97" width="3" height="4.75" transform="translate(-88.1 281.99) rotate(-45)"/><rect x="293.97" y="251.32" width="4.75" height="3" transform="translate(-91.98 283.59) rotate(-45)"/><rect x="299.45" y="245.85" width="4.75" height="3" transform="translate(-86.5 285.87) rotate(-45)"/><rect x="297.58" y="248.58" width="3" height="3" transform="translate(-89.24 284.74) rotate(-45)"/><rect x="393.84" y="244.97" width="3" height="4.75" transform="translate(-59.11 352) rotate(-45)"/><rect x="399.32" y="250.45" width="3" height="4.75" transform="translate(-61.37 357.47) rotate(-45)"/><rect x="398.45" y="245.85" width="4.75" height="3" transform="translate(-57.5 355.87) rotate(-45)"/><rect x="392.97" y="251.32" width="4.75" height="3" transform="translate(-62.98 353.59) rotate(-45)"/><rect x="396.58" y="248.58" width="3" height="3" transform="translate(-60.24 354.75) rotate(-45)"/><polygon points="494.61 246.73 497.96 250.08 500 248.05 500 247.88 496.73 244.61 494.61 246.73"/><polygon points="497.96 250.08 494.61 253.44 496.73 255.56 500 252.29 500 252.12 497.96 250.08"/><polygon points="500 248.05 497.96 250.08 500 252.12 500 248.05"/><polygon points="0.08 247.96 0 247.88 0 248.05 0.08 247.96"/><rect x="1.32" y="250.45" width="3" height="4.75" transform="translate(-177.95 76.05) rotate(-45)"/><rect x="0.45" y="245.85" width="4.75" height="3" transform="translate(-174.07 74.44) rotate(-45)"/><polygon points="0 252.12 0 252.29 0.08 252.21 0 252.12"/><polygon points="0 252.12 0.08 252.21 2.2 250.08 0.08 247.96 0 248.05 0 252.12"/><rect x="94.84" y="244.97" width="3" height="4.75" transform="translate(-146.68 140.57) rotate(-45)"/><rect x="100.32" y="250.45" width="3" height="4.75" transform="translate(-148.95 146.05) rotate(-45)"/><rect x="93.97" y="251.32" width="4.75" height="3" transform="translate(-150.55 142.17) rotate(-45)"/><rect x="99.45" y="245.85" width="4.75" height="3" transform="translate(-145.08 144.44) rotate(-45)"/><rect x="97.58" y="248.58" width="3" height="3" transform="translate(-147.82 143.32) rotate(-45)"/><rect x="195.84" y="344.97" width="3" height="4.75" transform="translate(-187.81 241.28) rotate(-45)"/><rect x="201.32" y="350.45" width="3" height="4.75" transform="translate(-190.08 246.76) rotate(-45)"/><rect x="200.45" y="345.85" width="4.75" height="3" transform="translate(-186.2 245.13) rotate(-45)"/><rect x="194.97" y="351.32" width="4.75" height="3" transform="translate(-191.68 242.88) rotate(-45)"/><rect x="198.58" y="348.58" width="3" height="3" transform="translate(-188.94 244.02) rotate(-45)"/><rect x="300.32" y="350.45" width="3" height="4.75" transform="translate(-161.08 316.76) rotate(-45)"/><rect x="294.84" y="344.97" width="3" height="4.75" transform="translate(-158.81 311.28) rotate(-45)"/><rect x="293.97" y="351.32" width="4.75" height="3" transform="translate(-162.68 312.87) rotate(-45)"/><rect x="299.45" y="345.85" width="4.75" height="3" transform="translate(-157.21 315.16) rotate(-45)"/><rect x="297.58" y="348.58" width="3" height="3" transform="translate(-159.95 314.03) rotate(-45)"/><rect x="399.32" y="350.45" width="3" height="4.75" transform="translate(-132.08 386.76) rotate(-45)"/><rect x="393.84" y="344.97" width="3" height="4.75" transform="translate(-129.82 381.29) rotate(-45)"/><rect x="392.97" y="351.32" width="4.75" height="3" transform="translate(-133.69 382.87) rotate(-45)"/><rect x="398.45" y="345.85" width="4.75" height="3" transform="translate(-128.21 385.16) rotate(-45)"/><rect x="396.58" y="348.58" width="3" height="3" transform="translate(-130.95 384.04) rotate(-45)"/><polygon points="494.61 346.73 497.96 350.08 500 348.05 500 347.88 496.73 344.61 494.61 346.73"/><polygon points="497.96 350.08 494.61 353.44 496.73 355.56 500 352.29 500 352.12 497.96 350.08"/><polygon points="500 348.05 497.96 350.08 500 352.12 500 348.05"/><rect x="1.32" y="350.45" width="3" height="4.75" transform="translate(-248.66 105.33) rotate(-45)"/><polygon points="0.08 347.96 0 347.88 0 348.05 0.08 347.96"/><polygon points="0 352.12 0 352.29 0.08 352.2 0 352.12"/><rect x="0.45" y="345.85" width="4.75" height="3" transform="translate(-244.78 103.73) rotate(-45)"/><polygon points="0 352.12 0.08 352.2 2.2 350.08 0.08 347.96 0 348.05 0 352.12"/><rect x="100.32" y="350.45" width="3" height="4.75" transform="translate(-219.66 175.34) rotate(-45)"/><rect x="94.84" y="344.97" width="3" height="4.75" transform="translate(-217.39 169.86) rotate(-45)"/><rect x="99.45" y="345.85" width="4.75" height="3" transform="translate(-215.79 173.73) rotate(-45)"/><rect x="93.97" y="351.32" width="4.75" height="3" transform="translate(-221.26 171.46) rotate(-45)"/><rect x="97.58" y="348.58" width="3" height="3" transform="translate(-218.53 172.61) rotate(-45)"/><rect x="201.32" y="450.45" width="3" height="4.75" transform="translate(-260.79 276.05) rotate(-45)"/><rect x="195.84" y="444.97" width="3" height="4.75" transform="translate(-258.52 270.57) rotate(-45)"/><rect x="194.97" y="451.32" width="4.75" height="3" transform="translate(-262.39 272.17) rotate(-45)"/><rect x="200.45" y="445.85" width="4.75" height="3" transform="translate(-256.91 274.42) rotate(-45)"/><rect x="198.58" y="448.58" width="3" height="3" transform="translate(-259.65 273.31) rotate(-45)"/><rect x="300.32" y="450.45" width="3" height="4.75" transform="translate(-231.79 346.05) rotate(-45)"/><rect x="294.84" y="444.97" width="3" height="4.75" transform="translate(-229.52 340.57) rotate(-45)"/><rect x="293.97" y="451.32" width="4.75" height="3" transform="translate(-233.39 342.16) rotate(-45)"/><rect x="299.45" y="445.85" width="4.75" height="3" transform="translate(-227.92 344.44) rotate(-45)"/><rect x="297.58" y="448.58" width="3" height="3" transform="translate(-230.66 343.32) rotate(-45)"/><rect x="393.84" y="444.97" width="3" height="4.75" transform="translate(-200.53 410.58) rotate(-45)"/><rect x="399.32" y="450.45" width="3" height="4.75" transform="translate(-202.8 416.05) rotate(-45)"/><rect x="392.97" y="451.32" width="4.75" height="3" transform="translate(-204.4 412.16) rotate(-45)"/><rect x="398.45" y="445.85" width="4.75" height="3" transform="translate(-198.92 414.45) rotate(-45)"/><rect x="396.58" y="448.58" width="3" height="3" transform="translate(-201.66 413.33) rotate(-45)"/><polygon points="494.61 446.73 497.96 450.08 500 448.05 500 447.88 496.73 444.61 494.61 446.73"/><polygon points="497.96 450.08 494.61 453.44 496.73 455.56 500 452.29 500 452.12 497.96 450.08"/><polygon points="500 448.05 497.96 450.08 500 452.12 500 448.05"/><rect x="1.32" y="450.45" width="3" height="4.75" transform="translate(-319.37 134.62) rotate(-45)"/><polygon points="0.08 447.96 0 447.88 0 448.05 0.08 447.96"/><polygon points="0 452.12 0 452.29 0.08 452.2 0 452.12"/><rect x="0.45" y="445.85" width="4.75" height="3" transform="translate(-315.49 133.02) rotate(-45)"/><polygon points="0 452.12 0.08 452.2 2.2 450.08 0.08 447.96 0 448.05 0 452.12"/><rect x="94.84" y="444.97" width="3" height="4.75" transform="translate(-288.1 199.15) rotate(-45)"/><rect x="100.32" y="450.45" width="3" height="4.75" transform="translate(-290.37 204.63) rotate(-45)"/><rect x="93.97" y="451.32" width="4.75" height="3" transform="translate(-291.97 200.74) rotate(-45)"/><rect x="99.45" y="445.85" width="4.75" height="3" transform="translate(-286.5 203.02) rotate(-45)"/><rect x="97.58" y="448.58" width="3" height="3" transform="translate(-289.24 201.9) rotate(-45)"/></g></svg>